<svg width="181" height="91" viewBox="0 0 181 91" fill="none" xmlns="http://www.w3.org/2000/svg">
<path d="M159.18 72.064C158.22 72.064 157.132 71.936 155.916 71.68C154.764 71.36 153.74 70.976 152.844 70.528C152.012 70.016 151.596 69.536 151.596 69.088C151.596 68.064 152.556 67.552 154.476 67.552C155.564 67.552 156.844 67.328 158.316 66.88C159.788 66.432 161.132 65.952 162.348 65.44C163.628 64.864 164.46 64.448 164.844 64.192C164.588 63.808 163.98 63.232 163.02 62.464C162.06 61.632 161.004 60.64 159.852 59.488C158.7 58.336 157.676 57.056 156.78 55.648C155.948 54.176 155.532 52.576 155.532 50.848C155.532 49.056 156.012 47.392 156.972 45.856C157.932 44.256 159.116 42.816 160.524 41.536C161.996 40.192 163.468 39.04 164.94 38.08C166.476 37.056 167.788 36.224 168.876 35.584C169.324 35.328 169.804 35.2 170.316 35.2C171.34 35.2 172.3 35.552 173.196 36.256C174.156 36.96 174.636 37.632 174.636 38.272C174.636 38.336 174.572 38.496 174.444 38.752C173.932 39.328 173.356 40.224 172.716 41.44C172.14 42.656 171.628 43.936 171.18 45.28C170.732 46.56 170.508 47.744 170.508 48.832C170.508 50.048 170.252 50.656 169.74 50.656C169.484 50.656 169.292 50.4 169.164 49.888C169.036 49.376 168.972 48.896 168.972 48.448C168.972 47.168 169.164 45.792 169.548 44.32C169.996 42.848 170.284 41.792 170.412 41.152C169.644 41.152 168.588 41.664 167.244 42.688C165.964 43.648 164.652 44.864 163.308 46.336C161.964 47.744 160.812 49.184 159.852 50.656C158.956 52.064 158.508 53.216 158.508 54.112C158.508 55.328 158.924 56.448 159.756 57.472C160.588 58.432 161.612 59.328 162.828 60.16C164.108 60.992 165.292 61.888 166.38 62.848C167.02 62.592 168.012 62.144 169.356 61.504C170.7 60.8 172.108 60.096 173.58 59.392C175.116 58.624 176.46 57.984 177.612 57.472C178.828 56.96 179.628 56.704 180.012 56.704C180.14 56.704 180.204 56.736 180.204 56.8C180.204 57.248 179.724 57.824 178.764 58.528C177.804 59.232 176.62 59.968 175.212 60.736C173.804 61.504 172.396 62.24 170.988 62.944C169.644 63.648 168.588 64.192 167.82 64.576C168.012 65.152 168.108 65.728 168.108 66.304C168.108 67.648 167.628 68.736 166.668 69.568C165.772 70.4 164.62 71.04 163.212 71.488C161.868 71.872 160.524 72.064 159.18 72.064Z" fill="#415058"/>
<path d="M143.15 72.832C142.446 72.832 141.678 72.576 140.846 72.064C140.014 71.488 139.438 70.88 139.118 70.24C139.118 68.768 139.31 66.752 139.694 64.192C140.078 61.632 140.494 59.008 140.942 56.32C141.454 53.568 141.902 51.232 142.286 49.312C141.134 51.104 139.822 53.056 138.35 55.168C136.878 57.28 135.374 59.264 133.838 61.12C132.302 62.912 130.734 64.416 129.134 65.632C127.598 66.784 126.158 67.36 124.814 67.36C123.47 67.36 122.414 66.912 121.646 66.016C120.878 65.056 120.494 63.968 120.494 62.752C120.494 62.432 120.558 62.016 120.686 61.504C121.262 58.56 122.382 55.808 124.046 53.248C125.774 50.624 127.726 48.32 129.902 46.336C132.142 44.352 134.35 42.784 136.526 41.632C138.702 40.48 140.558 39.904 142.094 39.904C143.246 39.904 144.334 40.16 145.358 40.672C146.446 41.12 147.47 41.888 148.43 42.976C148.622 43.168 148.718 43.392 148.718 43.648C148.718 43.968 148.526 44.288 148.142 44.608C147.694 46.144 147.214 48 146.702 50.176C146.254 52.288 145.806 54.496 145.358 56.8C144.974 59.04 144.654 61.12 144.398 63.04C144.142 64.96 144.014 66.432 144.014 67.456C144.014 68.16 144.11 68.512 144.302 68.512C144.814 68.512 145.454 67.968 146.222 66.88C147.054 65.792 147.854 64.544 148.622 63.136C149.39 61.728 150.062 60.48 150.638 59.392C151.278 58.304 151.662 57.76 151.79 57.76C151.982 57.76 152.078 58.016 152.078 58.528C152.078 59.616 151.726 60.96 151.022 62.56C150.318 64.16 149.454 65.76 148.43 67.36C147.47 68.896 146.478 70.208 145.454 71.296C144.494 72.32 143.726 72.832 143.15 72.832ZM125.582 63.808C126.478 63.808 127.598 63.296 128.942 62.272C130.35 61.248 131.79 59.936 133.262 58.336C134.798 56.736 136.27 55.04 137.678 53.248C139.15 51.456 140.398 49.76 141.422 48.16C142.51 46.496 143.278 45.152 143.726 44.128C142.446 44.128 140.974 44.608 139.31 45.568C137.646 46.464 135.95 47.648 134.222 49.12C132.494 50.528 130.894 52.096 129.422 53.824C127.95 55.488 126.766 57.12 125.87 58.72C124.974 60.32 124.526 61.696 124.526 62.848C124.526 63.488 124.878 63.808 125.582 63.808Z" fill="#415058"/>
<path d="M99.9262 73.888C97.6222 73.888 95.9262 73.152 94.8382 71.68C93.7502 70.144 93.2062 68.288 93.2062 66.112C93.2062 63.808 93.7502 60.992 94.8382 57.664C95.9262 54.336 97.0782 51.2 98.2942 48.256C97.2062 48.96 96.0862 49.6 94.9342 50.176C93.7822 50.752 92.7582 51.04 91.8622 51.04C91.2222 51.04 90.7422 50.88 90.4222 50.56C90.1662 50.24 90.0382 49.888 90.0382 49.504C90.0382 49.184 90.1342 48.704 90.3262 48.064C90.5182 47.424 90.8382 46.816 91.2862 46.24C91.7982 45.664 92.4062 45.376 93.1102 45.376C93.3662 45.376 93.4942 45.472 93.4942 45.664C93.4942 45.728 93.4622 45.792 93.3982 45.856C93.3982 45.856 93.3982 45.888 93.3982 45.952C93.3342 46.08 93.3022 46.208 93.3022 46.336C93.3022 46.592 93.4622 46.72 93.7822 46.72C93.9742 46.72 94.1982 46.688 94.4542 46.624C94.7742 46.56 95.0942 46.432 95.4142 46.24C96.0542 45.92 96.7902 45.536 97.6222 45.088C98.4542 44.576 99.3822 44.064 100.406 43.552L101.846 40.672C102.23 39.968 102.678 39.488 103.19 39.232C103.702 38.912 104.182 38.752 104.63 38.752C105.334 38.752 105.942 38.88 106.454 39.136C107.03 39.328 107.542 39.584 107.99 39.904C108.694 39.584 109.43 39.296 110.198 39.04C111.03 38.72 111.83 38.496 112.598 38.368C115.03 37.472 117.558 36.768 120.182 36.256C122.806 35.68 125.398 35.392 127.958 35.392C129.366 35.392 130.806 35.584 132.278 35.968C133.75 36.352 134.486 36.96 134.486 37.792C134.486 38.048 134.23 38.176 133.718 38.176C132.694 38.176 131.51 38.048 130.166 37.792C128.886 37.536 127.606 37.408 126.326 37.408C124.726 37.408 123.19 37.504 121.718 37.696C120.246 37.824 118.87 38.048 117.59 38.368C118.614 38.816 119.446 39.584 120.086 40.672C120.79 41.76 121.142 43.136 121.142 44.8C121.142 46.592 120.694 48.736 119.798 51.232C118.966 53.728 117.814 56.288 116.342 58.912C114.934 61.536 113.302 64 111.446 66.304C109.59 68.544 107.67 70.368 105.686 71.776C103.702 73.184 101.782 73.888 99.9262 73.888ZM100.982 71.872C102.326 71.872 103.702 71.264 105.11 70.048C106.582 68.832 108.022 67.296 109.43 65.44C110.838 63.584 112.086 61.664 113.174 59.68C113.686 58.784 114.262 57.568 114.902 56.032C115.606 54.496 116.182 52.864 116.63 51.136C117.142 49.408 117.398 47.84 117.398 46.432C117.398 45.152 117.11 44.096 116.534 43.264C116.022 42.368 115.03 41.92 113.558 41.92C112.854 41.92 111.958 42.112 110.87 42.496C109.782 42.88 108.63 43.328 107.414 43.84C107.158 44.096 106.902 44.384 106.646 44.704C106.454 44.96 106.294 45.248 106.166 45.568C104.95 47.808 103.734 50.304 102.518 53.056C101.302 55.744 100.278 58.368 99.4462 60.928C98.6782 63.488 98.2942 65.728 98.2942 67.648C98.2942 70.464 99.1902 71.872 100.982 71.872Z" fill="#415058"/>
<path d="M80.7982 71.584C78.4302 71.584 76.8302 70.272 75.9982 67.648C75.1662 64.96 74.7502 61.664 74.7502 57.76C74.7502 55.648 74.8142 53.6 74.9422 51.616C75.0702 49.568 75.1662 47.872 75.2302 46.528C74.2062 46.4 73.2142 46.208 72.2542 45.952C71.3582 45.632 70.6542 45.312 70.1422 44.992C70.0782 45.44 69.8222 46.368 69.3742 47.776C68.9262 49.12 68.3822 50.688 67.7422 52.48C67.1662 54.272 66.5262 56.032 65.8222 57.76C65.1182 59.488 64.4462 60.928 63.8062 62.08C63.1662 63.168 62.5902 63.712 62.0782 63.712C61.8222 63.712 61.6942 63.52 61.6942 63.136C61.6942 62.624 61.9182 61.92 62.3662 61.024C63.6462 58.4 64.7982 55.712 65.8222 52.96C66.8462 50.208 67.7742 47.36 68.6062 44.416C67.9662 44.16 67.4862 43.712 67.1662 43.072C66.9102 42.368 66.7822 41.6 66.7822 40.768C66.7822 38.464 67.1022 36.576 67.7422 35.104C68.4462 33.632 69.2142 32.544 70.0462 31.84C70.8782 31.072 71.5182 30.688 71.9662 30.688C72.7342 30.688 73.1182 31.328 73.1182 32.608C73.1182 33.248 72.9582 34.24 72.6382 35.584C72.3182 36.864 71.9342 38.208 71.4862 39.616C71.0382 40.96 70.6542 42.048 70.3342 42.88C70.3342 42.88 70.5262 43.008 70.9102 43.264C71.2942 43.52 71.7102 43.648 72.1582 43.648C72.7982 43.648 73.4062 43.264 73.9822 42.496C74.6222 41.664 75.3582 40.864 76.1902 40.096C77.0862 39.264 78.2062 38.848 79.5502 38.848C80.2542 38.848 80.8622 38.944 81.3742 39.136C81.8862 39.264 82.1422 39.52 82.1422 39.904V40.192C81.5022 41.792 81.0222 43.904 80.7022 46.528C80.3822 49.088 80.2222 51.68 80.2222 54.304C80.2222 56.608 80.3502 58.784 80.6062 60.832C80.8622 62.816 81.2462 64.416 81.7582 65.632C82.3342 66.848 83.0062 67.456 83.7742 67.456C84.5422 67.456 85.2782 67.04 85.9822 66.208C86.6862 65.376 87.2942 64.48 87.8062 63.52C88.3822 62.56 88.7662 61.856 88.9582 61.408C90.3022 58.912 91.1342 57.312 91.4542 56.608C91.7742 55.84 92.1902 55.456 92.7022 55.456C92.8942 55.456 92.9902 55.584 92.9902 55.84C92.9902 55.968 92.9262 56.288 92.7982 56.8C92.0302 58.912 91.0702 61.12 89.9182 63.424C88.8302 65.664 87.5182 67.584 85.9822 69.184C84.4462 70.784 82.7182 71.584 80.7982 71.584Z" fill="#415058"/>
<path d="M14.3639 90.016C13.7239 89.952 13.0519 89.536 12.3479 88.768C11.6439 88.064 11.0679 87.264 10.6199 86.368C10.1719 85.472 9.94786 84.832 9.94786 84.448C9.94786 82.656 11.8039 80.352 15.5159 77.536C19.2919 74.72 24.6039 71.968 31.4519 69.28C35.8039 67.616 39.6439 66.112 42.9719 64.768C46.2999 63.424 49.2439 62.24 51.8039 61.216C51.9959 60.64 52.1559 60.096 52.2839 59.584C52.4119 59.008 52.4759 58.464 52.4759 57.952C52.4759 55.776 51.6439 53.824 49.9799 52.096C48.3799 50.304 46.2359 48.704 43.5479 47.296C40.8599 45.888 37.8199 44.64 34.4279 43.552C31.0999 42.4 27.7079 41.408 24.2519 40.576C20.7959 39.744 17.4999 39.04 14.3639 38.464C14.2359 38.528 14.0439 38.656 13.7879 38.848C13.5319 38.976 13.2439 39.104 12.9239 39.232C12.6039 42.112 12.3479 45.024 12.1559 47.968C12.0279 50.848 11.9639 53.632 11.9639 56.32C11.9639 58.304 11.9959 60.224 12.0599 62.08C12.1879 63.936 12.3159 65.696 12.4439 67.36C12.7639 66.464 13.0519 65.536 13.3079 64.576C13.5639 63.552 13.7239 63.04 13.7879 63.04C13.9159 63.04 13.9799 63.52 13.9799 64.48C13.9799 65.568 13.9479 67.168 13.8839 69.28C13.8199 71.328 13.7879 73.088 13.7879 74.56C13.7879 75.776 13.8199 76.448 13.8839 76.576C13.8839 76.64 13.7879 76.672 13.5959 76.672C13.2119 76.672 12.5079 76.544 11.4839 76.288C10.5239 76.032 9.62786 75.68 8.79586 75.232C7.96386 74.784 7.48386 74.24 7.35586 73.6C6.97186 71.36 6.77986 68.48 6.77986 64.96C6.77986 61.44 6.93986 57.568 7.25986 53.344C7.64386 49.056 8.05986 44.768 8.50786 40.48C7.67586 40.672 6.93986 40.768 6.29986 40.768C6.23586 40.768 5.75586 40.672 4.85986 40.48C3.96386 40.224 3.09986 39.872 2.26786 39.424C1.43586 38.976 1.01986 38.432 1.01986 37.792C1.01986 37.408 1.78786 36.864 3.32386 36.16C4.85986 35.392 6.81186 34.848 9.17986 34.528C9.62787 31.2 10.0759 28.096 10.5239 25.216C10.9719 22.336 11.3879 19.84 11.7719 17.728C11.1959 18.496 10.7159 18.88 10.3319 18.88C10.2039 18.88 10.1399 18.752 10.1399 18.496C10.1399 18.24 10.1719 18.048 10.2359 17.92C10.4279 17.408 10.7479 16.64 11.1959 15.616C11.7079 14.592 12.2199 13.568 12.7319 12.544C13.3079 11.456 13.8839 10.56 14.4599 9.85599C15.0359 9.088 15.5159 8.704 15.8999 8.704C16.8599 8.704 17.7879 9.12 18.6839 9.95199C19.6439 10.72 20.1239 11.424 20.1239 12.064V12.352C18.5239 15.04 17.1799 18.304 16.0919 22.144C15.0679 25.92 14.2359 29.92 13.5959 34.144C13.9159 34.144 14.2359 34.176 14.5559 34.24C14.9399 34.304 15.3239 34.336 15.7079 34.336H16.9559C17.4679 34.336 18.0439 34.368 18.6839 34.432C19.3239 34.432 19.9639 34.464 20.6039 34.528C22.8439 33.888 25.2119 33.12 27.7079 32.224C30.2679 31.328 32.6359 30.272 34.8119 29.056C37.0519 27.84 38.8759 26.496 40.2839 25.024C41.6919 23.552 42.3959 21.952 42.3959 20.224C42.3959 19.2 41.7239 18.112 40.3799 16.96C39.0359 15.808 37.3079 14.656 35.1959 13.504C33.0839 12.352 30.7799 11.296 28.2839 10.336C25.8519 9.31199 23.4839 8.44799 21.1799 7.74399C18.9399 6.97599 17.0519 6.432 15.5159 6.112C11.0359 5.216 7.29186 4.768 4.28386 4.768C3.64386 4.768 3.06786 4.8 2.55586 4.86399C2.10786 4.86399 1.69186 4.89599 1.30786 4.95999C0.859864 4.76799 0.635864 4.54399 0.635864 4.288C0.635864 3.776 1.33986 3.23199 2.74786 2.65599C4.15586 2.07999 5.94786 1.59999 8.12386 1.216C10.2999 0.831993 12.4759 0.639992 14.6519 0.639992C15.5479 0.639992 16.4119 0.671993 17.2439 0.735996C18.0759 0.799995 18.8439 0.927994 19.5479 1.11999C21.7239 1.63199 24.0919 2.33599 26.6519 3.23199C29.2119 4.12799 31.7719 5.18399 34.3319 6.39999C36.8919 7.61599 39.2279 8.92799 41.3399 10.336C43.5159 11.68 45.2439 13.12 46.5239 14.656C47.8039 16.128 48.4439 17.6 48.4439 19.072C48.4439 20.8 47.4839 22.4 45.5639 23.872C42.9399 25.856 40.0919 27.936 37.0199 30.112C33.9479 32.224 30.4279 33.984 26.4599 35.392C28.8919 35.904 31.5479 36.64 34.4279 37.6C37.3079 38.496 40.1559 39.616 42.9719 40.96C45.8519 42.304 48.4439 43.84 50.7479 45.568C53.1159 47.232 55.0039 49.056 56.4119 51.04C57.8199 53.024 58.5239 55.136 58.5239 57.376C58.5239 57.888 58.4919 58.24 58.4279 58.432C61.2439 57.28 63.2279 56.448 64.3799 55.936C65.5319 55.424 66.1719 55.168 66.2999 55.168C66.4279 55.168 66.4919 55.2 66.4919 55.264C66.4919 56.032 65.6919 56.928 64.0919 57.952C62.4919 58.976 60.4119 60.096 57.8519 61.312C56.9559 64.064 55.2599 66.784 52.7639 69.472C50.3319 72.16 47.4199 74.688 44.0279 77.056C40.6999 79.488 37.2119 81.632 33.5639 83.488C29.9159 85.408 26.3959 86.944 23.0039 88.096C19.6759 89.248 16.7959 89.888 14.3639 90.016ZM13.6919 84.544C16.9559 83.712 19.8359 82.88 22.3319 82.048C24.8279 81.216 27.1639 80.32 29.3399 79.36C31.5159 78.4 33.6599 77.248 35.7719 75.904C37.8839 74.56 40.1879 72.992 42.6839 71.2C44.2199 70.112 45.5319 69.056 46.6199 68.032C47.7719 66.944 48.7639 65.888 49.5959 64.864C46.6519 66.08 43.6119 67.296 40.4759 68.512C37.4039 69.664 34.5559 70.752 31.9319 71.776C30.2679 72.416 28.3799 73.344 26.2679 74.56C24.2199 75.776 22.2359 77.024 20.3159 78.304C18.3959 79.648 16.7959 80.864 15.5159 81.952C14.2999 83.104 13.6919 83.968 13.6919 84.544Z" fill="#415058"/>
</svg>
